<?xml version="1.0" encoding="UTF-8"?>
<svg id="Layer_1" data-name="Layer 1" xmlns="http://www.w3.org/2000/svg" xmlns:xlink="http://www.w3.org/1999/xlink" viewBox="0 0 1078.45 540">
  <defs>
    <style>
      .cls-1 {
        opacity: .56;
      }

      .cls-2 {
        fill: #184176;
      }

      .cls-3 {
        fill: #fff;
      }

      .cls-4 {
        opacity: .33;
      }

      .cls-5 {
        opacity: .67;
      }

      .cls-6 {
        opacity: 0;
      }

      .cls-7 {
        opacity: .22;
      }

      .cls-8 {
        opacity: .89;
      }

      .cls-9 {
        opacity: .44;
      }

      .cls-10 {
        opacity: .11;
      }

      .cls-11 {
        clip-path: url(#clippath);
      }

      .cls-12 {
        fill: none;
      }

      .cls-13 {
        opacity: .78;
      }
    </style>
    <clipPath id="clippath">
      <path class="cls-12" d="M784.9,374.86c-101.61-25.88-100.04-32.78-207.6-32.93-8.87-.01-25.4-73.68-35.74-73.68-9.18,0-28.05,75.8-36.34,75.86-114.39,.78-141.66,10.1-211.65,30.76,0-135.67,109.99-245.66,245.66-245.66s245.66,109.99,245.66,245.66Z"/>
    </clipPath>
  </defs>
  <g class="cls-11">
    <g>
      <path class="cls-3" d="M541.68,446.44c-33.78,0-61.27-27.48-61.27-61.26s27.48-61.26,61.27-61.26,61.26,27.48,61.26,61.26-27.48,61.26-61.26,61.26Zm0-121.41c-33.17,0-60.15,26.98-60.15,60.15s26.98,60.15,60.15,60.15,60.15-26.98,60.15-60.15-26.98-60.15-60.15-60.15Z"/>
      <g class="cls-8">
        <path class="cls-3" d="M541.68,468.13c-45.75,0-82.96-37.22-82.96-82.96s37.22-82.96,82.96-82.96,82.96,37.22,82.96,82.96-37.22,82.96-82.96,82.96Zm0-164.81c-45.13,0-81.85,36.72-81.85,81.85s36.72,81.85,81.85,81.85,81.85-36.72,81.85-81.85-36.72-81.85-81.85-81.85Z"/>
      </g>
      <g class="cls-13">
        <path class="cls-3" d="M541.68,489.83c-57.71,0-104.66-46.95-104.66-104.66s46.95-104.66,104.66-104.66,104.66,46.95,104.66,104.66-46.95,104.66-104.66,104.66Zm0-208.2c-57.09,0-103.54,46.45-103.54,103.54s46.45,103.54,103.54,103.54,103.54-46.45,103.54-103.54-46.45-103.54-103.54-103.54Z"/>
      </g>
      <g class="cls-5">
        <path class="cls-3" d="M541.68,511.53c-69.67,0-126.36-56.68-126.36-126.35s56.68-126.35,126.36-126.35,126.35,56.68,126.35,126.35-56.68,126.35-126.35,126.35Zm0-251.59c-69.06,0-125.24,56.18-125.24,125.24s56.18,125.24,125.24,125.24,125.24-56.18,125.24-125.24-56.18-125.24-125.24-125.24Z"/>
      </g>
      <g class="cls-1">
        <path class="cls-3" d="M541.68,533.22c-81.64,0-148.05-66.42-148.05-148.05s66.42-148.05,148.05-148.05,148.05,66.42,148.05,148.05-66.42,148.05-148.05,148.05Zm0-294.99c-81.02,0-146.94,65.92-146.94,146.94s65.92,146.94,146.94,146.94,146.94-65.92,146.94-146.94-65.92-146.94-146.94-146.94Z"/>
      </g>
      <g class="cls-9">
        <path class="cls-3" d="M541.68,554.92c-93.6,0-169.75-76.15-169.75-169.75s76.15-169.75,169.75-169.75,169.75,76.15,169.75,169.75-76.15,169.75-169.75,169.75Zm0-338.38c-92.98,0-168.63,75.65-168.63,168.63s75.65,168.63,168.63,168.63,168.63-75.65,168.63-168.63-75.65-168.63-168.63-168.63Z"/>
      </g>
      <g class="cls-4">
        <path class="cls-3" d="M541.68,576.62c-105.56,0-191.45-85.88-191.45-191.44s85.88-191.44,191.45-191.44,191.44,85.88,191.44,191.44-85.88,191.44-191.44,191.44Zm0-381.77c-104.95,0-190.33,85.38-190.33,190.33s85.38,190.33,190.33,190.33,190.33-85.38,190.33-190.33-85.38-190.33-190.33-190.33Z"/>
      </g>
      <g class="cls-7">
        <path class="cls-3" d="M541.68,598.31c-117.53,0-213.14-95.61-213.14-213.14s95.62-213.14,213.14-213.14,213.14,95.62,213.14,213.14-95.61,213.14-213.14,213.14Zm0-425.17c-116.91,0-212.03,95.11-212.03,212.03s95.11,212.03,212.03,212.03,212.03-95.11,212.03-212.03-95.11-212.03-212.03-212.03Z"/>
      </g>
      <g class="cls-10">
        <path class="cls-3" d="M541.68,620.01c-62.73,0-121.7-24.43-166.06-68.78-44.35-44.36-68.78-103.33-68.78-166.06s24.43-121.7,68.78-166.06c44.36-44.35,103.33-68.78,166.06-68.78s121.7,24.43,166.05,68.78c44.35,44.36,68.78,103.33,68.78,166.06s-24.43,121.7-68.78,166.06c-44.36,44.35-103.33,68.78-166.05,68.78Zm0-468.56c-128.88,0-233.72,104.85-233.72,233.72s104.85,233.72,233.72,233.72,233.72-104.85,233.72-233.72-104.85-233.72-233.72-233.72Z"/>
      </g>
      <g class="cls-6">
        <path class="cls-3" d="M541.68,641.71c-68.52,0-132.94-26.68-181.4-75.14-48.45-48.45-75.14-112.87-75.14-181.4s26.68-132.94,75.14-181.4c48.45-48.45,112.87-75.14,181.4-75.14s132.94,26.68,181.4,75.14c48.45,48.45,75.14,112.87,75.14,181.4s-26.68,132.94-75.14,181.4c-48.45,48.45-112.87,75.14-181.4,75.14Zm0-511.95c-140.84,0-255.42,114.58-255.42,255.42s114.58,255.42,255.42,255.42,255.42-114.58,255.42-255.42-114.58-255.42-255.42-255.42Z"/>
      </g>
    </g>
  </g>
  <g>
    <path class="cls-3" d="M766.26,249.99c0-.28,.07-.51,.22-.67,.15-.17,.4-.33,.76-.48l2.08-.91c1.14-.5,1.98-1.07,2.52-1.71,.54-.65,.82-1.47,.82-2.46v-.21c0-.77-.18-1.46-.54-2.08-.36-.62-.89-1.11-1.58-1.47-.69-.37-1.55-.55-2.58-.55s-1.91,.19-2.6,.57c-.69,.38-1.22,.9-1.57,1.55-.35,.66-.53,1.4-.53,2.23h2.82c0-.59,.16-1.06,.48-1.4s.79-.52,1.4-.52,1.07,.17,1.39,.5,.49,.76,.49,1.28-.13,.93-.39,1.26-.65,.61-1.17,.83l-2.1,.91c-.66,.28-1.2,.59-1.61,.91s-.71,.7-.89,1.11c-.18,.41-.28,.9-.28,1.46v2.66h9.27v-2.5h-6.41v-.3Z"/>
    <path class="cls-3" d="M786.91,242.59c-.42-.96-1.05-1.72-1.89-2.29-.85-.57-1.92-.85-3.24-.85s-2.4,.28-3.25,.85c-.85,.56-1.49,1.33-1.9,2.29-.41,.96-.62,2.03-.62,3.22v1.03c0,.85,.1,1.65,.32,2.41,.22,.77,.55,1.44,1.01,2.03,.46,.59,1.06,1.05,1.79,1.38,.74,.34,1.62,.51,2.65,.51s1.91-.17,2.64-.51c.73-.33,1.31-.79,1.78-1.38,.45-.59,.79-1.26,1.01-2.03,.22-.76,.33-1.56,.33-2.41v-1.03c0-1.19-.21-2.26-.62-3.22Zm-3,6.86c-.47,.67-1.17,1-2.13,1s-1.69-.33-2.16-1.01c-.47-.68-.7-1.72-.7-3.14s.24-2.53,.71-3.18c.48-.65,1.2-.98,2.15-.98s1.63,.33,2.11,.98,.71,1.72,.71,3.22c0,1.4-.23,2.44-.69,3.11Z"/>
    <path class="cls-3" d="M793.87,249.99c0-.28,.07-.51,.22-.67,.15-.17,.4-.33,.76-.48l2.08-.91c1.14-.5,1.98-1.07,2.52-1.71,.54-.65,.82-1.47,.82-2.46v-.21c0-.77-.18-1.46-.54-2.08-.36-.62-.89-1.11-1.58-1.47-.69-.37-1.55-.55-2.58-.55s-1.91,.19-2.6,.57c-.69,.38-1.22,.9-1.57,1.55-.35,.66-.53,1.4-.53,2.23h2.82c0-.59,.16-1.06,.48-1.4s.79-.52,1.4-.52,1.07,.17,1.39,.5,.49,.76,.49,1.28-.13,.93-.39,1.26-.65,.61-1.17,.83l-2.1,.91c-.66,.28-1.2,.59-1.61,.91s-.71,.7-.89,1.11c-.18,.41-.28,.9-.28,1.46v2.66h9.27v-2.5h-6.41v-.3Z"/>
    <path class="cls-3" d="M813.62,246.19c-.36-.65-.87-1.15-1.53-1.52-.66-.36-1.45-.54-2.36-.54-.8,0-1.52,.15-2.13,.45-.55,.27-.99,.66-1.33,1.17,.04-.65,.15-1.22,.32-1.69,.22-.62,.61-1.08,1.16-1.4,.54-.32,1.29-.48,2.24-.48,.47,0,.94,.01,1.38,.04,.45,.02,.87,.06,1.26,.1v-2.45c-.4-.04-.82-.08-1.24-.1-.43-.02-.86-.04-1.3-.04-2.15,0-3.78,.55-4.87,1.64-1.1,1.1-1.64,2.73-1.64,4.88v.74c0,.85,.1,1.66,.3,2.41,.2,.75,.53,1.41,.97,1.98,.43,.57,1,1.02,1.69,1.34,.68,.32,1.51,.48,2.47,.48,1.04,0,1.95-.19,2.73-.59,.77-.39,1.37-.94,1.8-1.64,.43-.71,.65-1.52,.65-2.46,0-.88-.18-1.66-.53-2.31Zm-2.57,3.51c-.19,.32-.47,.58-.83,.77-.36,.19-.8,.29-1.32,.29s-.98-.1-1.35-.29c-.36-.19-.64-.45-.82-.78-.19-.33-.27-.71-.27-1.14,0-.5,.11-.91,.33-1.23,.23-.32,.53-.56,.92-.73,.38-.16,.8-.25,1.26-.25,.5,0,.93,.09,1.29,.27,.35,.19,.62,.44,.82,.77,.19,.33,.28,.71,.28,1.16s-.1,.82-.3,1.15Z"/>
  </g>
  <g>
    <path class="cls-3" d="M406.35,401.08c-.62,.44-1.38,.66-2.28,.66-.59,0-1.12-.1-1.58-.29-.46-.2-.85-.48-1.16-.85-.31-.37-.55-.81-.71-1.31-.16-.5-.24-1.06-.24-1.66s.08-1.18,.24-1.68c.16-.5,.39-.94,.69-1.31s.68-.65,1.13-.84,.96-.29,1.55-.29,1.1,.1,1.56,.29c.46,.2,.84,.48,1.15,.84s.49,.81,.58,1.33h2.93c-.1-1.03-.41-1.94-.95-2.72-.54-.78-1.26-1.39-2.16-1.83-.9-.44-1.94-.66-3.11-.66s-2.1,.19-2.92,.58-1.51,.9-2.05,1.54-.95,1.35-1.21,2.14c-.26,.79-.39,1.58-.39,2.39v.39c0,.73,.13,1.49,.38,2.27s.65,1.5,1.19,2.17c.54,.66,1.23,1.2,2.07,1.62s1.85,.62,3.02,.62c1.24,0,2.32-.24,3.22-.71,.91-.47,1.62-1.1,2.15-1.89,.53-.79,.84-1.65,.95-2.6h-2.91c-.13,.77-.51,1.37-1.13,1.81Z"/>
    <path class="cls-3" d="M425.22,399.48c.77-.31,1.37-.78,1.8-1.4,.43-.63,.65-1.43,.65-2.38v-.28c0-.97-.22-1.77-.64-2.41-.42-.65-1.04-1.14-1.83-1.46-.79-.33-1.73-.49-2.81-.49h-5.1v13.07h2.91v-4.15h2.11l2.85,4.15h3.37l-3.31-4.64Zm-.77-2.79c-.18,.31-.42,.56-.73,.73-.3,.17-.68,.25-1.1,.25h-2.41v-4.15h2.41c.42,0,.79,.09,1.1,.26,.31,.17,.55,.42,.73,.73s.27,.68,.27,1.11c0,.4-.09,.77-.27,1.08Z"/>
    <polygon class="cls-3" points="438.07 398.74 442.97 398.74 442.97 396.32 438.07 396.32 438.07 393.57 443.26 393.57 443.26 391.16 438.07 391.16 437.72 391.16 435.23 391.16 435.23 404.12 437.72 404.12 438.07 404.12 443.38 404.12 443.38 401.71 438.07 401.71 438.07 398.74"/>
    <path class="cls-3" d="M458.51,391.16h-4.7l-4.28,12.96h2.91l1.03-3.21h5.42l1.05,3.21h3.02l-4.44-12.96Zm-4.27,7.33l1.58-4.93h.65l1.62,4.93h-3.85Z"/>
    <polygon class="cls-3" points="467.37 393.71 471.03 393.71 471.03 404.12 473.94 404.12 473.94 393.71 477.6 393.71 477.6 391.16 467.37 391.16 467.37 393.71"/>
    <polygon class="cls-3" points="487.25 398.74 492.15 398.74 492.15 396.32 487.25 396.32 487.25 393.57 492.43 393.57 492.43 391.16 487.25 391.16 486.89 391.16 484.4 391.16 484.4 404.12 486.89 404.12 487.25 404.12 492.56 404.12 492.56 401.71 487.25 401.71 487.25 398.74"/>
    <polygon class="cls-3" points="513.49 397.02 512.92 397.02 510.28 391.16 507.29 391.16 511.08 399.22 511.72 399.22 511.72 404.12 514.58 404.12 514.58 399.22 515.21 399.22 518.7 391.16 515.87 391.16 513.49 397.02"/>
    <path class="cls-3" d="M537.49,395.02c-.3-.79-.74-1.5-1.31-2.14-.58-.64-1.31-1.15-2.17-1.54-.86-.38-1.86-.57-3-.57s-2.15,.19-3.01,.57c-.86,.39-1.58,.9-2.17,1.54-.59,.64-1.03,1.35-1.31,2.14-.29,.79-.43,1.58-.43,2.39v.39c0,.74,.14,1.49,.42,2.27,.28,.77,.71,1.5,1.28,2.17,.57,.67,1.29,1.21,2.16,1.62,.87,.42,1.89,.62,3.06,.62s2.19-.21,3.06-.62c.88-.41,1.59-.95,2.16-1.62,.56-.67,1-1.4,1.28-2.17,.28-.77,.42-1.53,.42-2.27v-.39c0-.81-.15-1.6-.44-2.39Zm-2.79,4.2c-.18,.5-.45,.94-.79,1.31s-.76,.68-1.25,.89c-.5,.22-1.05,.32-1.66,.32s-1.17-.1-1.65-.32c-.49-.22-.91-.51-1.26-.89-.35-.38-.61-.82-.79-1.31-.18-.49-.27-1.03-.27-1.6,0-.6,.09-1.15,.27-1.66,.18-.51,.44-.94,.79-1.31,.35-.36,.77-.65,1.26-.85,.48-.2,1.03-.3,1.65-.3s1.15,.1,1.64,.3c.49,.21,.91,.49,1.26,.85,.35,.37,.62,.8,.79,1.31,.19,.51,.28,1.05,.28,1.66s-.1,1.11-.28,1.6Z"/>
    <path class="cls-3" d="M553.29,398.95c0,.58-.1,1.08-.31,1.49-.21,.41-.52,.73-.93,.96s-.92,.34-1.51,.34-1.09-.11-1.5-.34-.72-.55-.94-.97-.33-.91-.33-1.48v-7.8h-2.91v7.69c0,1.15,.22,2.14,.66,2.98,.44,.84,1.08,1.49,1.93,1.95,.85,.46,1.88,.69,3.1,.69s2.27-.23,3.11-.69c.84-.46,1.48-1.11,1.92-1.95,.44-.84,.66-1.83,.66-2.98v-7.69h-2.93v7.8Z"/>
    <path class="cls-3" d="M571.76,399.48c.77-.31,1.37-.78,1.8-1.4,.43-.63,.65-1.43,.65-2.38v-.28c0-.97-.21-1.77-.64-2.41-.42-.65-1.03-1.14-1.83-1.46-.79-.33-1.73-.49-2.81-.49h-5.1v13.07h2.91v-4.15h2.11l2.85,4.15h3.37l-3.31-4.64Zm-.77-2.79c-.17,.31-.42,.56-.73,.73-.3,.17-.67,.25-1.1,.25h-2.41v-4.15h2.41c.43,0,.79,.09,1.1,.26,.31,.17,.56,.42,.73,.73,.18,.31,.27,.68,.27,1.11,0,.4-.09,.77-.27,1.08Z"/>
    <rect class="cls-3" x="590.51" y="391.16" width="2.91" height="12.96"/>
    <polygon class="cls-3" points="608.66 398.44 608.32 398.44 605.36 391.16 601.34 391.16 601.34 404.12 604.01 404.12 604.01 394.18 607.01 401.49 609.78 401.49 612.8 394.09 612.8 404.12 615.67 404.12 615.67 391.16 611.59 391.16 608.66 398.44"/>
    <path class="cls-3" d="M632.95,393.18c-.42-.68-1.03-1.21-1.81-1.57-.79-.36-1.73-.55-2.84-.55h-4.74v13.07h2.91v-3.71h1.83c1.11,0,2.05-.19,2.84-.55,.79-.37,1.39-.89,1.81-1.57,.42-.68,.62-1.49,.62-2.41v-.28c0-.94-.21-1.75-.62-2.42Zm-2.59,3.69c-.18,.33-.42,.57-.75,.75s-.71,.27-1.16,.27h-1.98v-4.32h1.98c.45,0,.83,.09,1.16,.27,.33,.18,.57,.43,.75,.76,.17,.33,.25,.71,.25,1.14s-.08,.8-.25,1.13Z"/>
    <path class="cls-3" d="M647.19,391.16h-4.7l-4.29,12.96h2.91l1.03-3.21h5.41l1.05,3.21h3.02l-4.44-12.96Zm-4.27,7.33l1.57-4.93h.65l1.62,4.93h-3.85Z"/>
    <path class="cls-3" d="M665.99,401.08c-.62,.44-1.38,.66-2.28,.66-.59,0-1.12-.1-1.58-.29-.46-.2-.85-.48-1.16-.85-.31-.37-.55-.81-.71-1.31-.16-.5-.24-1.06-.24-1.66s.08-1.18,.24-1.68c.16-.5,.39-.94,.69-1.31s.68-.65,1.13-.84,.96-.29,1.55-.29,1.1,.1,1.56,.29c.46,.2,.84,.48,1.15,.84s.49,.81,.58,1.33h2.93c-.1-1.03-.41-1.94-.95-2.72-.54-.78-1.26-1.39-2.16-1.83-.9-.44-1.94-.66-3.11-.66s-2.1,.19-2.92,.58-1.51,.9-2.05,1.54-.95,1.35-1.21,2.14c-.26,.79-.39,1.58-.39,2.39v.39c0,.73,.13,1.49,.38,2.27s.65,1.5,1.19,2.17c.54,.66,1.23,1.2,2.07,1.62s1.85,.62,3.02,.62c1.24,0,2.32-.24,3.22-.71,.91-.47,1.62-1.1,2.15-1.89,.53-.79,.84-1.65,.95-2.6h-2.91c-.13,.77-.51,1.37-1.13,1.81Z"/>
    <polygon class="cls-3" points="675.73 393.71 679.39 393.71 679.39 404.12 682.3 404.12 682.3 393.71 685.96 393.71 685.96 391.16 675.73 391.16 675.73 393.71"/>
  </g>
  <g>
    <path class="cls-3" d="M814.16,362.5v-94.26h-18.49v27.91h-27.61v-27.91h-18.47v79.33c-11.39-2.25-22.85-4.33-34.37-6.22h.49c.89,0,1.75-.02,2.59-.06h.01c4.64-.22,8.65-1.02,12.01-2.42,3.97-1.66,6.98-4.04,9.03-7.16,2.06-3.11,3.08-6.84,3.08-11.22v-1.39c0-4.64-1.16-8.34-3.47-11.12-1.6-1.92-3.62-3.46-6.04-4.64,1.13-.81,2.12-1.73,3.01-2.77,2.34-2.74,3.52-6.4,3.52-10.97v-1.49c0-6.55-2.31-11.61-6.95-15.15-4.64-3.54-11.19-5.31-19.67-5.31h-28.41v69.1c-4.89-.65-9.78-1.28-14.69-1.86v-66.65h-26.13l-14.8,38.25h-1.99l-14.89-38.25h-25.63v59.92c-3.49-.14-6.97-.26-10.46-.37l-10.34-31.16-9.41-28.39h-29.59l-9.15,28.54-9.95,31.02c-4.94,.16-9.88,.35-14.8,.57l-7.45-10.62-1.65-2.36c.99-.43,1.94-.91,2.82-1.45,2.8-1.64,5.08-3.75,6.85-6.31,1.25-1.82,2.18-3.87,2.81-6.16,.61-2.24,.91-4.71,.91-7.4v-1.59c0-5.43-1.22-9.98-3.68-13.66-2.45-3.68-5.95-6.45-10.52-8.34-4.57-1.89-10-2.83-16.29-2.83h-30.1v64.78c-2.87,.28-5.75,.58-8.62,.88l-21.58-65.07h-29.6l-23.86,74.44-.46,1.44c-1.68,.31-3.37,.62-5.05,.93l-.49-1.46-24.97-75.35h-29.6l-31.58,92.88-1.42,4.17c-44.92,12.36-88.64,27.61-130.97,45.52,116.78-32.99,239.28-47.55,365.67-51.47,.02-.09,.05-.28,.07-.35,.93-4.26,3.79-7.8,7.61-9.67,1.87-.93,4-1.45,6.24-1.45,2.38,0,4.62,.59,6.59,1.63,2.27-4.81,7.17-8.15,12.85-8.15,2.04,0,3.97,.43,5.72,1.2,.53-.58,1.04-1.17,1.51-1.79,1.94-2.53,3.46-5.41,4.44-8.52,.26-.82,1.36-4.34,1.56-9.47-.08,0-.15,.01-.23,.02-1.87,.22-3.67,.7-5.34,1.4-5.22,2.21-9.28,6.65-10.99,12.12-.57-1.83-.88-3.78-.88-5.79,0-6.41,3.11-12.1,7.88-15.63-1.32-3.04-2.05-6.4-2.05-9.93,0-9.43,5.23-17.63,12.94-21.88,7.72,4.25,12.95,12.45,12.95,21.88,0,3.53-.73,6.89-2.05,9.93,4.77,3.53,7.88,9.22,7.88,15.63,0,2.01-.31,3.96-.88,5.79-1.72-5.47-5.77-9.91-10.99-12.12-1.68-.7-3.47-1.18-5.35-1.4-.07-.01-.13-.02-.2-.02-.03,.49-.04,1.02-.05,1.56-.11,5.56,1.44,11.07,4.66,15.6,.2,.28,.4,.56,.61,.83,.38,.49,.77,.97,1.18,1.43,1.5-.54,3.12-.84,4.81-.84,5.67,0,10.58,3.34,12.84,8.15,1.97-1.04,4.21-1.63,6.59-1.63s4.78,.63,6.81,1.74c3.58,1.96,6.24,5.43,7.09,9.56,0,.02,.01,.08,.01,.11,125.97,3.72,246.3,16.79,362.77,49.4-43.99-18.34-89.46-33.81-136.2-46.18Zm-509.3-79.35h3.72l8.06,25.72h-19.62l7.84-25.72Zm-25.4,76.73l1.35-3.75,11.6-32.16h28.96l6.27,22.73,.56,2.03c-16.38,3.35-32.64,7.07-48.74,11.15Zm109.84-76.73h3.7l8.07,25.72h-19.62l7.85-25.72Zm-17.59,57.64l.25-.81,4.88-16.01h28.96l3.59,11.44c-12.63,1.58-25.19,3.37-37.68,5.38Zm83.06-10.03v-12.25h10.51l7.26,10.97c-5.94,.38-11.86,.81-17.77,1.28Zm22.1-31.43c-.9,1.59-2.14,2.82-3.73,3.68-1.59,.86-3.48,1.29-5.66,1.29h-12.71v-21.15h12.71c2.18,0,4.07,.43,5.66,1.29,1.59,.85,2.83,2.08,3.73,3.67,.89,1.59,1.34,3.47,1.34,5.66s-.45,3.97-1.34,5.56Zm174.57,33.51c-15.98-1.63-32.08-2.92-48.27-3.84v-42.21l15.7,39.36h16.78l15.79-39.82v46.51Zm50.86-51.09h11.32c2.72,0,4.69,.68,5.92,2.04,1.22,1.35,1.83,3.29,1.83,5.81s-.61,4.35-1.83,5.71c-1.23,1.36-3.2,2.04-5.92,2.04h-11.32v-15.6Zm0,29.31h14.01c2.71,0,4.74,.68,6.06,2.03,1.32,1.36,1.98,3.37,1.98,6.01s-.66,4.67-1.98,6.06c-1.32,1.39-3.35,2.09-6.06,2.09h-14.01v-16.19Zm93.37,46.73c-9.15-2.24-18.36-4.37-27.61-6.37v-39.18h27.61v45.55Zm-248.73-56.15c0-2.9-2.35-5.26-5.26-5.26s-5.25,2.36-5.25,5.26,2.35,5.26,5.25,5.26,5.26-2.35,5.26-5.26Z"/>
    <g>
      <g>
        <path class="cls-2" d="M540.38,321.44l2.75-.17c-.04,.45-.07,.95-.09,1.5-.45-.05-.9-.08-1.36-.09-.44,.01-.89,.04-1.33,.09,.01-.43,.03-.88,.03-1.33Z"/>
        <path class="cls-2" d="M546.94,301.64c0,2.91-2.35,5.26-5.26,5.26s-5.25-2.35-5.25-5.26,2.35-5.26,5.25-5.26,5.26,2.36,5.26,5.26Z"/>
      </g>
      <path class="cls-3" d="M546.94,301.64c0,2.91-2.35,5.26-5.26,5.26s-5.25-2.35-5.25-5.26,2.35-5.26,5.25-5.26,5.26,2.36,5.26,5.26Z"/>
    </g>
  </g>
</svg>